<?xml version="1.0" encoding="utf-8"?>
<!-- Generator: Adobe Illustrator 24.2.0, SVG Export Plug-In . SVG Version: 6.00 Build 0)  -->
<svg version="1.1" id="Layer_1" xmlns="http://www.w3.org/2000/svg" xmlns:xlink="http://www.w3.org/1999/xlink" x="0px" y="0px"
	 viewBox="0 0 595.28 841.89" style="enable-background:new 0 0 595.28 841.89;" xml:space="preserve">
<style type="text/css">
	.st0{fill:#FDCC9A;}
	.st1{fill:#FDCD9A;stroke:#231F20;stroke-width:0.5;stroke-miterlimit:10;}
	.st2{fill:#FFD094;stroke:#231F20;stroke-width:0.5;stroke-miterlimit:10;}
	.st3{fill:#FDCC9A;stroke:#231F20;stroke-width:0.5;stroke-miterlimit:10;}
</style>
<path class="st0" d="M228.92,265.33"/>
<g>
	<path class="st1" d="M218.24,195.37c-1.3-0.31-4.54,9-5.04,10.44c-6.01,17.49-6.15,32.81-5.88,37.08
		c0.51,8.19,0.99,14.71,3.96,22.08c4.38,10.88,11.61,18.3,15.12,21.6c1.51,1.42,7.2,6.62,16.56,11.28
		c6.61,3.3,12.33,4.63,22.08,7.28c4.63,1.26,12.36,3.26,21,6.64c1.91,0.75,5.56,2.59,9.24,6.6c1.11,1.21,2.49,2.76,3.48,5.4
		c1.35,3.59,1.85,6.17,1.56,8.76c-0.47,4.25-1.57,6.13-0.96,6.48c0.87,0.51,4.43-2.61,6-6.72c1.08-2.84,0.96-5.51,0.84-8.4
		c-0.05-1.26-0.15-3.34-0.8-5.89c-0.21-0.84-2.05-4.11-5.32-8.51c-2.77-3.72-6.12-6.77-12-10.08c-3.13-1.77-7.37-3.94-20.28-9
		c-8.3-3.25-12.53-4.98-19.75-8.52c-4.74-2.32-7.06-4.33-9.65-6.48c-4.19-3.48-7.22-6.76-9.48-10.08
		c-4.4-6.46-5.93-12.29-6.36-13.44c-0.54-1.44-3.51-7.96-4.2-18c-0.53-7.76-0.27-20.97,0.36-33.6
		C218.8,198.68,218.97,195.54,218.24,195.37z"/>
	<path class="st2" d="M248.12,305.29c-1.23,0.43-2.39,1.57-3.96,6c-1.85,5.21-2.34,9.58-2.52,11.4c-0.45,4.6-0.84,8.6,0.24,13.8
		c1.11,5.39,3.03,8.33,3.48,9c1.47,2.19,3.03,3.63,3.84,4.32c2.89,2.46,5.67,3.48,6.36,3.72c3.84,1.34,7.9,1.32,8.04,0.72
		c0.1-0.45-2.13-0.78-5.04-2.88c-2.74-1.97-4.33-4.25-5.04-5.4c-0.43-0.69-1.98-3.28-2.64-7.08c-0.7-4.04-0.01-7.23,0.48-9.36
		c0.89-3.91,2.36-6.71,3.96-9.72c3.45-6.49,5.81-8.21,4.93-10.22c-0.5-1.14-2.49-1.83-6.49-3.22
		C250.84,305.36,249.35,304.86,248.12,305.29z"/>
	<path class="st3" d="M257.72,280.93c0.18,1.41,2.24,1.81,6.12,3.48c4.42,1.91,6.21,3.33,7.68,2.4c0.48-0.3,0.7-0.73,0.84-0.96
		c3.1-5.1,3.77-11.72,3.84-12.48c0.64-6.85,0.96-10.27,0.84-13.44c-0.16-4.36-0.44-10.54-3-17.76c-2.18-6.14-4.99-10.12-7.92-14.28
		c-6.93-9.83-14.45-15.85-18-18.48c-5.17-3.83-9.34-6.01-14.4-8.64c-5.88-3.05-14.12-6.77-14.68-5.83
		c-0.15,0.25,0.79,1.27,2.68,3.31c1.82,1.97,2.71,2.97,4.32,4.44c3.23,2.95,4.33,3.57,6.84,5.76c2.37,2.07,3.89,3.71,6.12,6.12
		c3.31,3.58,5.48,6.37,8.52,10.32c3.51,4.56,5.27,6.84,6.84,9.6c2.18,3.83,3.47,7.18,4.24,9.5c4.35,13.09,2.44,24.66,1.64,27.7
		c-1.35,5.11-2.02,7.66-2.16,7.92C257.92,279.91,257.65,280.36,257.72,280.93z"/>
	<path class="st3" d="M200.24,218.17c-0.92-0.2-2.82,4.62-3.84,7.92c-0.61,1.97-2.27,7.78-2.16,16.68c0.02,1.77,0.15,7.01,1.56,13.8
		c0.97,4.66,2.36,11.16,6.48,18.6c3.37,6.09,7.02,10.02,9,12.12c2.93,3.11,8.45,8.86,17.16,12.61c3.56,1.53,8.09,2.92,8.4,2.27
		c0.16-0.33-0.84-1.09-4.08-3.6c-4.64-3.59-6.98-5.4-7.92-6.24c-2.52-2.23-4.03-4.11-6.6-7.32c-3.37-4.21-5.49-7.64-5.97-8.44
		c-0.55-0.9-2.65-4.4-4.64-8.89c-1.61-3.65-5.99-13.56-6.55-26.35c-0.48-10.87-0.36-17.04-0.36-17.04
		C200.78,221.09,200.91,218.32,200.24,218.17z"/>
	<path class="st3" d="M184.16,235.81c-0.67,2.83-0.75,5.19-0.72,7.92c0.04,3.58,0.07,6.72,0.69,11.13
		c0.24,1.67,1.04,6.92,3.27,13.59c1.31,3.93,2.86,8.57,6.24,14.04c3.71,6.01,7.59,9.72,8.88,10.92c5.24,4.84,9.4,6.56,11.16,7.2
		c2.24,0.82,5.38,1.64,5.64,1.08c0.22-0.48-1.82-1.66-4.32-3.6c-4.27-3.3-6.95-6.5-8.64-8.52c-2.97-3.54-4.61-6.5-6.62-10.13
		c-1.1-1.99-3.79-7.01-6.34-13.99c-1.78-4.88-4.46-12.23-5.09-20.11c-0.21-2.66-0.55-5.31-0.79-7.97c-0.46-5.03-0.55-6.89-1.08-6.96
		C185.7,230.32,184.65,233.74,184.16,235.81z"/>
	<path class="st3" d="M281.84,286.09c-0.04-0.56-0.11-1.45-0.18-2.53c-0.43-6.57-0.42-11.49-0.42-12.71c0-13.06,0-19.59-1.08-25.08
		c-2.95-15-13.51-25.52-19.8-31.8c-8.12-8.09-14.96-11.64-14.4-12.6c0.66-1.12,10.77,2.49,19.8,9c4.61,3.32,13.1,9.61,18.36,21.24
		c4.15,9.18,4.24,17.18,4.32,23.4c0.04,3.29-0.07,13.07-4.08,24.72C283.44,282.39,282.53,284.56,281.84,286.09z"/>
	<path class="st3" d="M262.4,202.69c-0.35,0.71,3.24,2.95,7.32,6c5.08,3.8,9.96,7.45,14.04,12.84c1.44,1.9,4.76,6.36,6.6,12.96
		c0.93,3.34,1.14,6.75,1.56,13.56c0.27,4.42,0.48,7.88,0.36,12.24c-0.35,12.29-3.03,19.86-1.8,20.28c1,0.34,3.47-4.44,3.84-5.16
		c2.31-4.48,3.77-9.46,4.56-17.88c0.73-7.87,1.25-13.41-0.24-20.88c-0.83-4.14-1.91-9.3-5.52-15c-3.78-5.96-8.27-9.27-11.04-11.28
		c-6.19-4.48-11.48-5.97-15.84-7.2C263.62,202.43,262.57,202.35,262.4,202.69z"/>
</g>
<g>
	<path class="st1" d="M395.42,195.14c-0.71-1.14-9.56,3.19-10.93,3.86c-16.58,8.18-27.48,18.96-30.29,22.18
		c-5.41,6.18-9.66,11.14-12.74,18.46c-4.56,10.81-4.65,21.16-4.48,25.98c0.07,2.07,0.45,9.77,3.81,19.67
		c2.37,7,5.49,11.97,10.54,20.72c2.4,4.16,6.48,11.02,10.23,19.5c0.83,1.88,2.13,5.75,1.91,11.19c-0.07,1.64-0.18,3.72-1.33,6.28
		c-1.57,3.5-3.03,5.68-5.06,7.32c-3.32,2.68-5.43,3.24-5.25,3.92c0.26,0.98,4.98,1.27,8.99-0.54c2.77-1.25,4.57-3.23,6.51-5.37
		c0.85-0.93,2.24-2.48,3.58-4.75c0.44-0.75,1.44-4.36,2.22-9.79c0.66-4.59,0.42-9.11-1.42-15.61c-0.98-3.46-2.46-7.99-8.06-20.67
		c-3.6-8.16-5.39-12.36-8.02-19.96c-1.72-4.99-1.96-8.05-2.28-11.39c-0.52-5.42-0.36-9.88,0.37-13.83
		c1.43-7.68,4.45-12.9,4.95-14.02c0.63-1.41,3.12-8.12,9.7-15.74c5.08-5.88,14.57-15.07,23.92-23.6
		C393.49,197.89,395.82,195.78,395.42,195.14z"/>
	<path class="st2" d="M339.21,294.21c-1.18-0.56-2.8-0.57-7.04,1.47c-4.98,2.4-8.41,5.15-9.82,6.32c-3.56,2.95-6.65,5.52-9.55,9.96
		c-3,4.61-3.72,8.04-3.87,8.84c-0.5,2.59-0.4,4.71-0.32,5.77c0.31,3.78,1.57,6.46,1.89,7.12c1.78,3.66,4.68,6.5,5.2,6.17
		c0.39-0.25-0.96-2.06-1.55-5.59c-0.55-3.33-0.08-6.07,0.23-7.38c0.18-0.79,0.9-3.72,3.11-6.89c2.35-3.36,5.09-5.14,6.93-6.31
		c3.39-2.15,6.4-3.1,9.66-4.11c7.02-2.18,9.9-1.74,10.7-3.78c0.45-1.16-0.48-3.06-2.34-6.86
		C341.09,296.17,340.38,294.77,339.21,294.21z"/>
	<path class="st3" d="M363.18,283.68c-0.87,1.13,0.32,2.86,1.89,6.78c1.79,4.46,2.07,6.74,3.76,7.11c0.55,0.12,1.01-0.02,1.27-0.09
		c5.79-1.44,10.93-5.66,11.52-6.15c5.28-4.41,7.91-6.62,10.06-8.95c2.96-3.21,7.12-7.79,10.38-14.72c2.78-5.9,3.59-10.7,4.44-15.72
		c2-11.86,0.91-21.43,0.24-25.8c-0.98-6.36-2.39-10.85-4.14-16.28c-2.03-6.31-5.25-14.76-6.31-14.48c-0.28,0.07-0.33,1.46-0.43,4.24
		c-0.1,2.68-0.17,4.02-0.06,6.19c0.21,4.37,0.56,5.59,0.8,8.91c0.22,3.14,0.15,5.37,0.03,8.65c-0.17,4.87-0.6,8.38-1.22,13.33
		c-0.72,5.71-1.08,8.56-1.91,11.63c-1.15,4.25-2.59,7.54-3.68,9.74c-6.14,12.36-15.64,19.22-18.35,20.81
		c-4.55,2.68-6.83,4.02-7.11,4.1C364.04,283.09,363.53,283.23,363.18,283.68z"/>
	<path class="st3" d="M366.59,198.65c-0.51-0.79-5.26,1.3-8.3,2.92c-1.82,0.97-7.09,3.93-13.28,10.32
		c-1.23,1.27-4.83,5.08-8.61,10.89c-2.6,3.99-6.19,9.59-8.5,17.77c-1.9,6.7-2.07,12.06-2.15,14.94c-0.11,4.27-0.24,12.24,3.3,21.03
		c1.45,3.6,3.69,7.77,4.37,7.53c0.35-0.12,0.17-1.37-0.36-5.43c-0.76-5.82-1.14-8.75-1.23-10.01c-0.22-3.36,0.04-5.76,0.47-9.84
		c0.57-5.36,1.49-9.29,1.7-10.2c0.25-1.03,1.21-4.99,2.97-9.57c1.43-3.73,5.31-13.85,13.91-23.32c7.31-8.05,11.75-12.35,11.75-12.35
		C364.91,201.1,366.96,199.23,366.59,198.65z"/>
	<path class="st3" d="M342.75,199.84c-2.47,1.54-4.19,3.16-6.09,5.11c-2.5,2.57-4.69,4.82-7.35,8.38
		c-1.01,1.35-4.14,5.64-7.26,11.95c-1.84,3.71-4,8.1-5.46,14.36c-1.6,6.88-1.46,12.25-1.39,14.01c0.31,7.13,2.05,11.28,2.85,12.97
		c1.02,2.16,2.67,4.96,3.24,4.74c0.49-0.19-0.12-2.46-0.53-5.6c-0.71-5.36-0.35-9.51-0.13-12.13c0.39-4.6,1.31-7.86,2.44-11.86
		c0.62-2.19,2.24-7.64,5.35-14.39c2.17-4.72,5.45-11.82,10.55-17.86c1.72-2.04,3.35-4.16,5.06-6.22c3.22-3.89,4.46-5.28,4.14-5.7
		C347.71,197.03,344.55,198.71,342.75,199.84z"/>
	<path class="st3" d="M376.67,304.34c0.36-0.43,0.94-1.11,1.65-1.93c4.32-4.97,7.8-8.45,8.66-9.32c9.2-9.27,13.8-13.9,16.9-18.56
		c8.47-12.73,8.39-27.63,8.34-36.52c-0.06-11.46-2.42-18.8-1.35-19.09c1.25-0.33,5.89,9.35,7.72,20.34
		c0.93,5.61,2.53,16.05-1.93,28.01c-3.52,9.43-9.09,15.18-13.42,19.65c-2.29,2.36-9.26,9.23-20.31,14.67
		C380.41,302.84,378.23,303.74,376.67,304.34z"/>
	<path class="st3" d="M421.61,231.44c-0.75,0.26,0.22,4.37,0.97,9.41c0.93,6.28,1.82,12.31,0.92,19c-0.32,2.36-1.11,7.87-4.44,13.85
		c-1.69,3.03-3.94,5.6-8.44,10.72c-2.92,3.33-5.21,5.94-8.37,8.94c-8.9,8.48-16.14,11.96-15.56,13.13c0.47,0.95,5.59-0.71,6.36-0.96
		c4.8-1.55,9.34-4.06,15.83-9.48c6.06-5.07,10.34-8.64,14.54-14.99c2.33-3.52,5.2-7.95,6.65-14.54c1.52-6.89,0.67-12.4,0.11-15.78
		c-1.24-7.54-3.94-12.32-6.17-16.27C422.66,232.12,421.97,231.32,421.61,231.44z"/>
</g>
<g>
	<path class="st1" d="M92.04,321.98c-1.13,0.72,3.3,9.52,3.99,10.88c8.38,16.48,19.29,27.25,22.54,30.02
		c6.24,5.33,11.26,9.52,18.61,12.52c10.86,4.42,21.22,4.4,26.03,4.17c2.07-0.1,9.76-0.57,19.62-4.05
		c6.97-2.46,11.91-5.63,20.59-10.79c4.13-2.45,10.94-6.61,19.38-10.47c1.87-0.85,5.73-2.2,11.17-2.04c1.64,0.05,3.72,0.13,6.3,1.26
		c3.52,1.53,5.71,2.96,7.38,4.97c2.72,3.29,3.31,5.39,3.99,5.2c0.97-0.27,1.21-5-0.65-8.99c-1.29-2.75-3.29-4.53-5.45-6.45
		c-0.94-0.84-2.51-2.21-4.79-3.52c-0.75-0.43-4.38-1.39-9.81-2.1c-4.6-0.6-9.12-0.31-15.59,1.61c-3.45,1.02-7.96,2.55-20.57,8.3
		c-8.11,3.7-12.29,5.54-19.86,8.26c-4.96,1.78-8.03,2.06-11.37,2.42c-5.41,0.58-9.88,0.48-13.84-0.2
		c-7.7-1.33-12.96-4.29-14.08-4.78c-1.41-0.62-8.16-3.02-15.85-9.51c-5.94-5.01-15.25-14.39-23.88-23.64
		C94.81,323.88,92.67,321.57,92.04,321.98z"/>
	<path class="st2" d="M191.78,376.99c-0.55,1.19-0.54,2.81,1.55,7.02c2.46,4.95,5.25,8.35,6.43,9.74c2.99,3.52,5.6,6.58,10.08,9.43
		c4.65,2.95,8.09,3.62,8.89,3.76c2.6,0.47,4.72,0.35,5.77,0.25c3.78-0.36,6.44-1.65,7.1-1.98c3.63-1.83,6.45-4.76,6.11-5.27
		c-0.25-0.39-2.04,0.99-5.58,1.62c-3.32,0.59-6.06,0.15-7.39-0.14c-0.79-0.17-3.73-0.86-6.92-3.03c-3.39-2.31-5.2-5.02-6.39-6.86
		c-2.19-3.36-3.18-6.36-4.23-9.61c-2.26-7-1.86-9.88-3.91-10.65c-1.16-0.44-3.05,0.52-6.83,2.42
		C193.72,375.09,192.32,375.81,191.78,376.99z"/>
	<path class="st3" d="M180.96,353.15c1.14,0.85,2.86-0.35,6.76-1.97c4.44-1.85,6.71-2.15,7.07-3.85c0.12-0.55-0.04-1.01-0.11-1.27
		c-1.51-5.77-5.79-10.86-6.29-11.44c-4.47-5.22-6.71-7.83-9.07-9.95c-3.25-2.92-7.88-7.02-14.84-10.2
		c-5.93-2.71-10.74-3.46-15.77-4.25c-11.88-1.86-21.44-0.65-25.8,0.07c-6.35,1.05-10.82,2.52-16.22,4.33
		c-6.28,2.1-14.69,5.43-14.4,6.49c0.08,0.28,1.47,0.31,4.24,0.38c2.68,0.06,4.02,0.12,6.19-0.01c4.37-0.26,5.58-0.63,8.9-0.91
		c3.14-0.26,5.37-0.21,8.65-0.14c4.88,0.11,8.39,0.5,13.34,1.06c5.72,0.65,8.58,0.97,11.65,1.77c4.26,1.1,7.57,2.5,9.78,3.56
		c12.43,5.99,19.41,15.41,21.03,18.1c2.73,4.52,4.1,6.78,4.19,7.06C180.36,352.3,180.5,352.8,180.96,353.15z"/>
	<path class="st3" d="M95.89,350.77c-0.79,0.52,1.36,5.24,3.02,8.27c0.99,1.81,4.01,7.04,10.48,13.16c1.28,1.21,5.14,4.76,11,8.48
		c4.02,2.55,9.66,6.07,17.87,8.29c6.72,1.82,12.08,1.93,14.97,1.97c4.27,0.06,12.24,0.1,20.99-3.55c3.58-1.49,7.72-3.78,7.48-4.46
		c-0.13-0.35-1.37-0.15-5.42,0.43c-5.81,0.83-8.74,1.25-9.99,1.35c-3.36,0.26-5.76,0.03-9.85-0.35c-5.37-0.51-9.31-1.38-10.22-1.58
		c-1.03-0.23-5.01-1.15-9.61-2.85c-3.75-1.38-13.91-5.14-23.49-13.63c-8.14-7.22-12.49-11.6-12.49-11.6
		C98.37,352.41,96.47,350.39,95.89,350.77z"/>
	<path class="st3" d="M97.37,374.59c1.57,2.45,3.21,4.15,5.19,6.03c2.6,2.46,4.87,4.63,8.47,7.24c1.36,0.99,5.69,4.07,12.04,7.11
		c3.74,1.79,8.15,3.9,14.43,5.29c6.9,1.52,12.26,1.32,14.02,1.22c7.13-0.4,11.25-2.19,12.94-3.01c2.15-1.04,4.92-2.73,4.7-3.3
		c-0.19-0.49-2.46,0.15-5.59,0.6c-5.35,0.77-9.5,0.47-12.13,0.28c-4.61-0.33-7.88-1.21-11.89-2.29c-2.2-0.59-7.67-2.15-14.46-5.18
		c-4.74-2.12-11.88-5.3-17.98-10.33c-2.06-1.7-4.2-3.3-6.28-4.98c-3.93-3.17-5.33-4.4-5.75-4.07
		C94.5,369.66,96.22,372.8,97.37,374.59z"/>
	<path class="st3" d="M201.45,339.41c-0.44-0.36-1.12-0.93-1.94-1.63c-5.02-4.26-8.55-7.7-9.42-8.55
		c-9.38-9.09-14.07-13.63-18.77-16.67c-12.83-8.32-27.73-8.06-36.62-7.9c-11.46,0.2-18.77,2.64-19.07,1.58
		c-0.35-1.25,9.28-6,20.24-7.96c5.59-1,16.02-2.73,28.03,1.59c9.48,3.41,15.29,8.9,19.81,13.18c2.39,2.26,9.34,9.15,14.92,20.13
		C199.91,335.69,200.83,337.86,201.45,339.41z"/>
	<path class="st3" d="M128.02,295.35c0.26,0.75,4.37-0.28,9.4-1.08c6.27-1,12.28-1.97,18.99-1.15c2.37,0.29,7.88,1.01,13.9,4.28
		c3.05,1.66,5.64,3.88,10.83,8.31c3.37,2.88,6,5.14,9.04,8.26c8.58,8.8,12.16,15.99,13.31,15.4c0.94-0.48-0.78-5.58-1.03-6.35
		c-1.61-4.78-4.17-9.29-9.67-15.72c-5.14-6-8.76-10.23-15.16-14.36c-3.55-2.29-8.01-5.1-14.61-6.47
		c-6.91-1.44-12.41-0.52-15.78,0.08c-7.53,1.33-12.28,4.09-16.19,6.37C128.68,294.3,127.89,294.99,128.02,295.35z"/>
</g>
<g>
	<path class="st1" d="M521.8,323.61c0.34-1.3-8.9-4.73-10.33-5.26c-17.35-6.38-32.68-6.85-36.95-6.67
		c-8.2,0.34-14.73,0.68-22.16,3.49c-10.97,4.14-18.54,11.21-21.92,14.66c-1.45,1.48-6.77,7.06-11.63,16.32
		c-3.44,6.54-4.89,12.23-7.75,21.92c-1.36,4.6-3.52,12.29-7.08,20.85c-0.79,1.9-2.7,5.51-6.8,9.1c-1.23,1.08-2.82,2.43-5.47,3.36
		c-3.62,1.27-6.2,1.71-8.79,1.37c-4.23-0.56-6.09-1.7-6.46-1.1c-0.53,0.86,2.51,4.49,6.59,6.14c2.81,1.14,5.49,1.08,8.38,1.02
		c1.26-0.03,3.34-0.08,5.91-0.68c0.85-0.2,4.15-1.96,8.62-5.14c3.78-2.69,6.89-5.98,10.33-11.78c1.83-3.1,4.1-7.29,9.43-20.08
		c3.43-8.23,5.24-12.42,8.94-19.57c2.43-4.69,4.48-6.97,6.68-9.5c3.57-4.11,6.91-7.07,10.28-9.26c6.55-4.26,12.42-5.67,13.57-6.07
		c1.46-0.51,8.04-3.34,18.09-3.82c7.77-0.37,20.97,0.17,33.58,1.08C518.48,324.1,521.61,324.34,521.8,323.61z"/>
	<path class="st2" d="M411.27,351.14c-0.41-1.24-1.52-2.42-5.91-4.09c-5.17-1.96-9.52-2.55-11.34-2.76
		c-4.59-0.54-8.58-1.02-13.8-0.05c-5.41,1-8.39,2.85-9.07,3.29c-2.22,1.42-3.7,2.95-4.4,3.75c-2.53,2.83-3.6,5.59-3.85,6.28
		c-1.42,3.81-1.49,7.87-0.89,8.02c0.45,0.11,0.83-2.11,2.99-4.98c2.03-2.69,4.34-4.23,5.51-4.92c0.7-0.41,3.32-1.91,7.13-2.49
		c4.06-0.62,7.23,0.15,9.35,0.68c3.89,0.98,6.66,2.5,9.63,4.17c6.42,3.59,8.08,5.98,10.11,5.15c1.15-0.47,1.89-2.46,3.36-6.42
		C411.14,353.85,411.67,352.37,411.27,351.14z"/>
	<path class="st3" d="M435.42,361.26c-1.42,0.15-1.85,2.2-3.61,6.04c-2,4.37-3.46,6.14-2.56,7.63c0.29,0.48,0.72,0.72,0.94,0.86
		c5.03,3.21,11.63,4.02,12.4,4.11c6.83,0.78,10.25,1.18,13.42,1.13c4.36-0.07,10.55-0.21,17.82-2.62
		c6.19-2.05,10.23-4.77,14.45-7.61c9.97-6.72,16.16-14.11,18.86-17.6c3.94-5.09,6.21-9.21,8.95-14.21
		c3.17-5.81,7.07-13.97,6.14-14.55c-0.24-0.15-1.29,0.77-3.37,2.61c-2.01,1.78-3.03,2.65-4.53,4.22c-3.02,3.16-3.66,4.26-5.9,6.72
		c-2.12,2.33-3.79,3.81-6.25,5.99c-3.65,3.24-6.49,5.34-10.5,8.3c-4.63,3.41-6.95,5.12-9.74,6.63c-3.87,2.1-7.25,3.32-9.59,4.04
		c-13.18,4.07-24.71,1.91-27.72,1.04c-5.08-1.45-7.62-2.18-7.87-2.33C436.44,361.47,435.99,361.19,435.42,361.26z"/>
	<path class="st3" d="M499.39,305.13c0.22-0.92-4.56-2.92-7.84-4.01c-1.96-0.65-7.73-2.43-16.63-2.52c-1.77-0.02-7.01,0-13.83,1.27
		c-4.68,0.87-11.21,2.13-18.73,6.08c-6.16,3.24-10.17,6.81-12.31,8.74c-3.17,2.86-9.04,8.26-12.97,16.88
		c-1.61,3.53-3.09,8.02-2.45,8.35c0.33,0.17,1.11-0.82,3.69-4c3.69-4.56,5.55-6.86,6.41-7.79c2.28-2.47,4.2-3.94,7.46-6.44
		c4.28-3.28,7.76-5.32,8.56-5.79c0.91-0.53,4.45-2.56,8.98-4.45c3.69-1.53,13.69-5.7,26.49-5.99c10.88-0.25,17.04,0,17.04,0
		C496.46,305.61,499.23,305.8,499.39,305.13z"/>
	<path class="st3" d="M482.1,288.67c-2.82-0.73-5.17-0.86-7.9-0.89c-3.58-0.04-6.72-0.08-11.14,0.45c-1.67,0.2-6.94,0.89-13.66,2.98
		c-3.96,1.23-8.63,2.68-14.17,5.94c-6.09,3.58-9.88,7.38-11.11,8.65c-4.96,5.14-6.76,9.26-7.44,11c-0.87,2.23-1.75,5.35-1.2,5.62
		c0.47,0.23,1.7-1.78,3.69-4.24c3.39-4.2,6.65-6.81,8.7-8.46c3.61-2.89,6.6-4.47,10.27-6.4c2.01-1.06,7.09-3.64,14.12-6.04
		c4.92-1.68,12.32-4.2,20.21-4.66c2.67-0.16,5.32-0.43,7.99-0.62c5.04-0.35,6.9-0.4,6.98-0.93
		C487.56,290.34,484.16,289.21,482.1,288.67z"/>
	<path class="st3" d="M429.74,385.26c0.56-0.03,1.45-0.08,2.53-0.13c6.58-0.29,11.5-0.17,12.72-0.14
		c13.06,0.28,19.58,0.42,25.1-0.54c15.06-2.63,25.81-12.96,32.22-19.12c8.26-7.94,11.96-14.71,12.9-14.13
		c1.1,0.68-2.72,10.71-9.42,19.6c-3.42,4.54-9.89,12.9-21.63,17.9c-9.26,3.95-17.26,3.88-23.49,3.82
		c-3.29-0.03-13.07-0.35-24.63-4.61C433.41,386.94,431.26,385.98,429.74,385.26z"/>
	<path class="st3" d="M513.54,367.6c-0.7-0.37-3.01,3.18-6.15,7.19c-3.91,5-7.67,9.8-13.14,13.76c-1.93,1.4-6.46,4.62-13.1,6.32
		c-3.36,0.86-6.77,1-13.59,1.27c-4.43,0.18-7.89,0.32-12.24,0.1c-12.28-0.61-19.79-3.45-20.24-2.23c-0.37,0.99,4.37,3.56,5.08,3.95
		c4.43,2.41,9.38,3.97,17.78,4.94c7.85,0.9,13.38,1.54,20.88,0.21c4.16-0.74,9.34-1.71,15.11-5.2c6.04-3.65,9.45-8.07,11.51-10.8
		c4.61-6.1,6.21-11.35,7.54-15.68C513.77,368.83,513.88,367.78,513.54,367.6z"/>
</g>
<g>
	<path class="st1" d="M92.43,497.59c-0.31,1.3,9.01,4.52,10.46,5.01c17.51,5.96,32.83,6.04,37.1,5.76
		c8.19-0.54,14.71-1.04,22.07-4.03c10.86-4.41,18.26-11.66,21.55-15.19c1.41-1.51,6.59-7.22,11.23-16.6
		c3.28-6.62,4.59-12.34,7.21-22.1c1.25-4.63,3.22-12.37,6.57-21.02c0.74-1.92,2.57-5.57,6.57-9.26c1.2-1.11,2.75-2.5,5.39-3.5
		c3.59-1.36,6.16-1.87,8.76-1.59c4.25,0.45,6.13,1.55,6.48,0.94c0.51-0.87-2.62-4.43-6.74-5.98c-2.84-1.07-5.51-0.95-8.4-0.81
		c-1.26,0.06-3.34,0.17-5.89,0.82c-0.84,0.22-4.11,2.06-8.49,5.35c-3.71,2.78-6.75,6.14-10.04,12.03
		c-1.76,3.14-3.92,7.39-8.94,20.31c-3.23,8.31-4.94,12.55-8.46,19.78c-2.31,4.74-4.31,7.08-6.45,9.67
		c-3.47,4.2-6.73,7.24-10.05,9.51c-6.44,4.42-12.27,5.97-13.42,6.4c-1.44,0.54-7.95,3.53-17.99,4.26
		c-7.76,0.56-20.96,0.34-33.6-0.25C95.74,497.02,92.6,496.85,92.43,497.59z"/>
	<path class="st2" d="M202.25,467.36c0.44,1.23,1.58,2.39,6.01,3.94c5.22,1.83,9.58,2.31,11.41,2.48c4.6,0.43,8.6,0.81,13.8-0.28
		c5.39-1.13,8.32-3.05,8.99-3.51c2.19-1.48,3.62-3.04,4.31-3.85c2.46-2.9,3.46-5.68,3.7-6.37c1.33-3.85,1.29-7.91,0.69-8.04
		c-0.45-0.1-0.78,2.13-2.86,5.05c-1.96,2.74-4.24,4.34-5.38,5.06c-0.69,0.43-3.27,1.99-7.07,2.66c-4.04,0.71-7.23,0.03-9.36-0.45
		c-3.91-0.88-6.71-2.34-9.73-3.93c-6.5-3.43-8.23-5.78-10.23-4.9c-1.14,0.5-1.83,2.5-3.2,6.5
		C202.31,464.65,201.82,466.14,202.25,467.36z"/>
	<path class="st3" d="M177.86,457.84c1.41-0.19,1.8-2.25,3.46-6.13c1.89-4.42,3.31-6.22,2.38-7.69c-0.3-0.48-0.73-0.7-0.96-0.84
		c-5.11-3.08-11.73-3.73-12.49-3.8c-6.85-0.62-10.27-0.93-13.44-0.8c-4.36,0.18-10.54,0.47-17.75,3.06
		c-6.14,2.2-10.11,5.02-14.26,7.96c-9.81,6.96-15.81,14.5-18.42,18.06c-3.81,5.18-5.99,9.36-8.59,14.43
		c-3.03,5.89-6.73,14.14-5.78,14.7c0.25,0.14,1.27-0.8,3.3-2.69c1.96-1.83,2.96-2.72,4.43-4.33c2.94-3.24,3.56-4.34,5.74-6.86
		c2.07-2.38,3.7-3.9,6.1-6.14c3.57-3.33,6.36-5.5,10.29-8.55c4.55-3.53,6.82-5.29,9.58-6.87c3.82-2.19,7.17-3.5,9.49-4.27
		c13.08-4.39,24.65-2.51,27.69-1.72c5.11,1.33,7.67,1.99,7.93,2.14C176.84,457.65,177.29,457.91,177.86,457.84z"/>
	<path class="st3" d="M115.28,515.52c-0.2,0.92,4.63,2.8,7.93,3.82c1.97,0.61,7.79,2.24,16.69,2.11c1.77-0.03,7.01-0.18,13.8-1.6
		c4.66-0.98,11.16-2.4,18.58-6.54c6.08-3.39,10-7.05,12.09-9.04c3.1-2.94,8.83-8.48,12.55-17.2c1.52-3.57,2.89-8.1,2.25-8.41
		c-0.33-0.16-1.09,0.85-3.59,4.09c-3.58,4.65-5.38,6.99-6.22,7.94c-2.22,2.53-4.1,4.04-7.3,6.62c-4.2,3.39-7.63,5.51-8.42,6
		c-0.9,0.55-4.39,2.67-8.87,4.66c-3.65,1.62-13.55,6.03-26.33,6.63c-10.87,0.51-17.04,0.41-17.04,0.41
		C118.21,514.96,115.43,514.84,115.28,515.52z"/>
	<path class="st3" d="M132.98,531.54c2.83,0.66,5.19,0.73,7.92,0.7c3.58-0.05,6.72-0.09,11.12-0.73c1.66-0.24,6.92-1.06,13.58-3.31
		c3.92-1.33,8.56-2.89,14.02-6.28c6-3.73,9.7-7.62,10.89-8.91c4.83-5.26,6.53-9.42,7.16-11.18c0.81-2.25,1.62-5.39,1.06-5.64
		c-0.48-0.22-1.66,1.82-3.59,4.33c-3.29,4.28-6.48,6.97-8.49,8.67c-3.53,2.98-6.49,4.63-10.11,6.65c-1.99,1.11-6.99,3.81-13.97,6.38
		c-4.88,1.8-12.21,4.5-20.09,5.15c-2.66,0.22-5.31,0.56-7.97,0.81c-5.03,0.47-6.89,0.57-6.96,1.1
		C127.48,530.01,130.9,531.06,132.98,531.54z"/>
	<path class="st3" d="M182.95,433.7c-0.56,0.05-1.45,0.12-2.53,0.19c-6.57,0.46-11.49,0.45-12.71,0.46
		c-13.06,0.04-19.59,0.06-25.08,1.16c-15,3-25.48,13.59-31.74,19.9c-8.07,8.14-11.6,15-12.55,14.44
		c-1.12-0.65,2.45-10.78,8.94-19.83c3.31-4.62,9.57-13.13,21.18-18.43c9.16-4.18,17.16-4.3,23.39-4.39c3.29-0.05,13.07,0.03,24.73,4
		C179.25,432.11,181.42,433.02,182.95,433.7z"/>
	<path class="st3" d="M99.61,453.4c0.71,0.35,2.93-3.25,5.98-7.34c3.79-5.09,7.42-9.98,12.8-14.08c1.9-1.45,6.35-4.78,12.94-6.64
		c3.34-0.94,6.75-1.16,13.56-1.6c4.42-0.29,7.88-0.51,12.24-0.4c12.29,0.31,19.87,2.96,20.29,1.74c0.34-1-4.45-3.45-5.17-3.82
		c-4.49-2.3-9.47-3.74-17.89-4.5c-7.87-0.71-13.42-1.21-20.88,0.31c-4.14,0.84-9.29,1.94-14.98,5.57
		c-5.95,3.79-9.25,8.29-11.25,11.08c-4.46,6.21-5.93,11.5-7.15,15.86C99.35,452.19,99.27,453.24,99.61,453.4z"/>
</g>
<g>
	<path class="st1" d="M518.87,498.34c1.14-0.7-3.1-9.59-3.77-10.96c-8.04-16.65-18.72-27.64-21.92-30.48
		c-6.13-5.46-11.06-9.75-18.35-12.9c-10.77-4.65-21.12-4.83-25.94-4.71c-2.07,0.06-9.77,0.37-19.7,3.64
		c-7.02,2.31-12.02,5.39-20.81,10.36c-4.18,2.36-11.07,6.39-19.59,10.06c-1.89,0.82-5.77,2.08-11.21,1.81
		c-1.64-0.08-3.71-0.21-6.27-1.39c-3.48-1.6-5.65-3.08-7.27-5.13c-2.66-3.35-3.2-5.46-3.88-5.28c-0.98,0.25-1.32,4.97,0.47,9
		c1.23,2.78,3.19,4.59,5.31,6.56c0.92,0.86,2.46,2.26,4.71,3.62c0.74,0.45,4.35,1.48,9.77,2.3c4.58,0.7,9.11,0.5,15.62-1.28
		c3.47-0.95,8.01-2.39,20.74-7.88c8.19-3.53,12.41-5.28,20.03-7.85c5-1.68,8.07-1.89,11.41-2.18c5.42-0.47,9.88-0.28,13.83,0.49
		c7.67,1.49,12.86,4.56,13.98,5.07c1.4,0.65,8.1,3.19,15.65,9.83c5.84,5.14,14.95,14.7,23.39,24.13
		C516.14,496.38,518.22,498.74,518.87,498.34z"/>
	<path class="st2" d="M420.29,441.27c0.57-1.18,0.59-2.8-1.41-7.05c-2.36-5-5.07-8.45-6.23-9.87c-2.92-3.58-5.46-6.7-9.88-9.64
		c-4.58-3.04-8.01-3.78-8.81-3.95c-2.59-0.52-4.71-0.45-5.77-0.37c-3.79,0.28-6.47,1.52-7.14,1.83c-3.67,1.75-6.54,4.62-6.22,5.15
		c0.24,0.39,2.06-0.94,5.61-1.5c3.33-0.52,6.07-0.02,7.38,0.29c0.79,0.19,3.72,0.94,6.86,3.17c3.34,2.38,5.09,5.13,6.25,6.99
		c2.12,3.41,3.05,6.42,4.03,9.69c2.11,7.04,1.65,9.92,3.69,10.73c1.16,0.46,3.06-0.45,6.88-2.28
		C418.31,443.14,419.72,442.45,420.29,441.27z"/>
	<path class="st3" d="M430.61,465.34c-1.13-0.88-2.86,0.29-6.8,1.83c-4.48,1.75-6.76,2.01-7.15,3.7c-0.13,0.55,0.02,1.01,0.08,1.27
		c1.39,5.8,5.57,10.98,6.05,11.57c4.36,5.31,6.55,7.97,8.86,10.14c3.18,2.99,7.73,7.18,14.63,10.51c5.87,2.83,10.67,3.68,15.68,4.57
		c11.84,2.11,21.42,1.1,25.79,0.46c6.37-0.92,10.87-2.3,16.31-3.99c6.32-1.97,14.8-5.12,14.53-6.19c-0.07-0.28-1.46-0.34-4.23-0.47
		c-2.68-0.12-4.02-0.2-6.19-0.11c-4.37,0.17-5.59,0.51-8.91,0.72c-3.14,0.2-5.37,0.1-8.65-0.04c-4.87-0.21-8.38-0.67-13.32-1.34
		c-5.7-0.77-8.55-1.15-11.62-2.01c-4.24-1.19-7.52-2.66-9.7-3.77c-12.31-6.24-19.08-15.81-20.65-18.53
		c-2.64-4.58-3.96-6.87-4.04-7.15C431.19,466.2,431.06,465.69,430.61,465.34z"/>
	<path class="st3" d="M515.61,469.48c0.8-0.5-1.25-5.27-2.85-8.33c-0.95-1.83-3.86-7.13-10.2-13.37c-1.26-1.24-5.04-4.87-10.82-8.71
		c-3.97-2.63-9.54-6.27-17.69-8.65c-6.68-1.96-12.04-2.18-14.92-2.28c-4.27-0.15-12.24-0.35-21.06,3.12
		c-3.61,1.42-7.8,3.62-7.57,4.3c0.12,0.35,1.37,0.18,5.43-0.31c5.82-0.71,8.76-1.07,10.02-1.14c3.36-0.19,5.76,0.09,9.84,0.56
		c5.36,0.62,9.28,1.57,10.18,1.79c1.03,0.25,4.98,1.26,9.55,3.05c3.72,1.46,13.8,5.43,23.2,14.11c7.99,7.38,12.25,11.85,12.25,11.85
		C513.17,467.78,515.03,469.85,515.61,469.48z"/>
	<path class="st3" d="M514.62,445.63c-1.52-2.48-3.12-4.21-5.06-6.13c-2.55-2.52-4.78-4.73-8.32-7.42
		c-1.34-1.02-5.61-4.19-11.89-7.36c-3.7-1.87-8.06-4.07-14.31-5.58c-6.87-1.66-12.23-1.57-13.99-1.51c-7.13,0.25-11.3,1.96-13,2.74
		c-2.17,1-4.98,2.63-4.77,3.2c0.18,0.49,2.46-0.1,5.6-0.48c5.36-0.66,9.51-0.27,12.13-0.03c4.6,0.43,7.85,1.38,11.84,2.54
		c2.19,0.64,7.62,2.31,14.35,5.48c4.7,2.21,11.77,5.55,17.77,10.7c2.02,1.74,4.13,3.39,6.17,5.11c3.86,3.25,5.24,4.51,5.67,4.18
		C517.39,450.62,515.73,447.44,514.62,445.63z"/>
	<path class="st3" d="M409.84,478.65c0.43,0.37,1.1,0.95,1.91,1.67c4.93,4.36,8.38,7.87,9.24,8.74
		c9.19,9.28,13.78,13.92,18.42,17.06c12.66,8.58,27.56,8.63,36.45,8.66c11.46,0.04,18.82-2.26,19.1-1.18
		c0.32,1.26-9.4,5.81-20.4,7.54c-5.61,0.88-16.07,2.39-27.99-2.17c-9.4-3.6-15.1-9.22-19.54-13.59c-2.34-2.31-9.15-9.34-14.5-20.43
		C411.3,482.4,410.42,480.21,409.84,478.65z"/>
	<path class="st3" d="M482.34,524.22c-0.25-0.75-4.37,0.19-9.42,0.89c-6.29,0.87-12.32,1.71-19.01,0.76
		c-2.36-0.34-7.86-1.17-13.81-4.56c-3.02-1.72-5.56-3.99-10.65-8.54c-3.31-2.95-5.89-5.26-8.87-8.44
		c-8.4-8.97-11.82-16.24-12.99-15.68c-0.95,0.46,0.66,5.6,0.9,6.37c1.51,4.81,3.98,9.38,9.34,15.91
		c5.01,6.11,8.55,10.41,14.86,14.67c3.5,2.36,7.9,5.26,14.48,6.77c6.88,1.58,12.4,0.77,15.78,0.25c7.55-1.18,12.36-3.84,16.32-6.03
		C481.66,525.26,482.46,524.58,482.34,524.22z"/>
</g>
<g>
	<path class="st1" d="M392.69,623.46c1.3,0.33,4.7-8.91,5.22-10.35c6.32-17.38,6.72-32.7,6.53-36.97
		c-0.37-8.2-0.74-14.73-3.57-22.15c-4.19-10.95-11.28-18.5-14.74-21.86c-1.48-1.44-7.09-6.74-16.36-11.57
		c-6.55-3.41-12.25-4.85-21.95-7.67c-4.61-1.34-12.3-3.47-20.88-7c-1.9-0.78-5.52-2.68-9.12-6.76c-1.09-1.23-2.44-2.81-3.38-5.46
		c-1.28-3.61-1.74-6.2-1.41-8.79c0.54-4.24,1.68-6.1,1.07-6.46c-0.86-0.52-4.48,2.53-6.12,6.61c-1.13,2.82-1.06,5.49-0.99,8.38
		c0.03,1.26,0.1,3.34,0.7,5.9c0.2,0.85,1.98,4.15,5.17,8.6c2.7,3.77,6,6.87,11.82,10.29c3.1,1.82,7.3,4.07,20.12,9.35
		c8.24,3.4,12.44,5.2,19.6,8.87c4.69,2.41,6.99,4.46,9.53,6.65c4.12,3.55,7.1,6.88,9.3,10.24c4.28,6.53,5.71,12.4,6.12,13.55
		c0.51,1.45,3.37,8.02,3.88,18.07c0.4,7.77-0.09,20.97-0.95,33.59C392.19,620.14,391.96,623.27,392.69,623.46z"/>
	<path class="st2" d="M364.75,513.03c1.24-0.41,2.42-1.53,4.06-5.93c1.94-5.18,2.51-9.53,2.72-11.35c0.53-4.59,0.99-8.58,0-13.8
		c-1.02-5.41-2.88-8.38-3.32-9.06c-1.43-2.22-2.97-3.68-3.76-4.39c-2.84-2.51-5.6-3.58-6.29-3.83c-3.82-1.4-7.88-1.46-8.03-0.86
		c-0.11,0.45,2.12,0.82,4.99,2.97c2.7,2.02,4.25,4.33,4.94,5.49c0.42,0.69,1.92,3.31,2.52,7.13c0.63,4.05-0.12,7.23-0.64,9.35
		c-0.96,3.89-2.47,6.67-4.13,9.65c-3.57,6.43-5.95,8.11-5.11,10.13c0.48,1.15,2.46,1.88,6.44,3.33
		C362.03,512.92,363.51,513.44,364.75,513.03z"/>
	<path class="st3" d="M354.72,537.22c-0.16-1.42-2.21-1.84-6.06-3.59c-4.38-1.98-6.15-3.43-7.64-2.53
		c-0.48,0.29-0.71,0.72-0.86,0.95c-3.19,5.05-3.97,11.65-4.06,12.41c-0.76,6.83-1.14,10.25-1.08,13.42
		c0.08,4.36,0.25,10.55,2.69,17.81c2.07,6.18,4.81,10.21,7.67,14.42c6.76,9.95,14.17,16.1,17.67,18.79
		c5.1,3.92,9.23,6.18,14.25,8.89c5.82,3.15,14,7.02,14.57,6.09c0.15-0.24-0.77-1.28-2.62-3.36c-1.78-2-2.66-3.02-4.24-4.52
		c-3.18-3.01-4.27-3.64-6.74-5.88c-2.33-2.11-3.82-3.78-6.01-6.23c-3.25-3.64-5.37-6.47-8.34-10.47c-3.43-4.62-5.15-6.93-6.67-9.72
		c-2.11-3.86-3.35-7.24-4.08-9.58c-4.12-13.17-2-24.7-1.15-27.72c1.43-5.09,2.15-7.63,2.3-7.88
		C354.51,538.24,354.78,537.79,354.72,537.22z"/>
	<path class="st3" d="M411.09,600.98c0.92,0.22,2.9-4.57,3.98-7.85c0.65-1.96,2.4-7.74,2.45-16.64c0.01-1.77-0.03-7.01-1.32-13.83
		c-0.88-4.68-2.17-11.2-6.15-18.71c-3.27-6.15-6.85-10.14-8.79-12.28c-2.88-3.16-8.29-9.01-16.93-12.91
		c-3.53-1.6-8.04-3.06-8.36-2.42c-0.17,0.33,0.82,1.11,4.02,3.67c4.57,3.67,6.88,5.53,7.81,6.38c2.48,2.27,3.96,4.18,6.47,7.43
		c3.3,4.27,5.35,7.74,5.82,8.54c0.53,0.91,2.58,4.44,4.48,8.97c1.55,3.68,5.75,13.67,6.09,26.47c0.29,10.87,0.06,17.04,0.06,17.04
		C410.6,598.05,410.42,600.82,411.09,600.98z"/>
	<path class="st3" d="M427.47,583.63c0.72-2.82,0.84-5.18,0.86-7.91c0.03-3.58,0.05-6.72-0.5-11.14c-0.21-1.67-0.92-6.94-3.03-13.65
		c-1.24-3.95-2.71-8.62-5.99-14.15c-3.61-6.08-7.41-9.86-8.69-11.07c-5.16-4.94-9.29-6.72-11.03-7.39
		c-2.23-0.86-5.36-1.73-5.62-1.18c-0.23,0.47,1.79,1.7,4.26,3.68c4.21,3.38,6.83,6.62,8.49,8.67c2.9,3.59,4.49,6.58,6.44,10.25
		c1.07,2.01,3.67,7.07,6.09,14.1c1.69,4.91,4.24,12.3,4.74,20.19c0.17,2.67,0.45,5.32,0.65,7.99c0.37,5.03,0.43,6.9,0.96,6.98
		C425.83,589.09,426.95,585.69,427.47,583.63z"/>
	<path class="st3" d="M330.69,531.64c0.03,0.56,0.09,1.45,0.14,2.53c0.32,6.58,0.21,11.5,0.19,12.72
		c-0.23,13.06-0.35,19.58,0.64,25.1c2.69,15.05,13.06,25.76,19.24,32.14c7.97,8.23,14.75,11.91,14.18,12.85
		c-0.68,1.11-10.72-2.68-19.64-9.35c-4.55-3.4-12.93-9.84-17.98-21.56c-3.98-9.25-3.94-17.25-3.91-23.47
		c0.02-3.29,0.3-13.07,4.51-24.64C329.02,535.31,329.98,533.15,330.69,531.64z"/>
	<path class="st3" d="M348.67,615.37c0.37-0.7-3.19-3-7.21-6.13c-5.01-3.89-9.83-7.63-13.81-13.08c-1.41-1.93-4.65-6.45-6.37-13.07
		c-0.87-3.36-1.02-6.77-1.32-13.59c-0.19-4.43-0.34-7.89-0.14-12.24c0.56-12.28,3.38-19.8,2.16-20.25
		c-0.99-0.36-3.55,4.38-3.93,5.09c-2.39,4.44-3.94,9.39-4.87,17.8c-0.87,7.85-1.49,13.39-0.13,20.88c0.75,4.15,1.75,9.33,5.26,15.09
		c3.67,6.03,8.1,9.42,10.84,11.47c6.11,4.59,11.37,6.17,15.71,7.48C347.44,615.6,348.49,615.7,348.67,615.37z"/>
</g>
<g>
	<path class="st1" d="M216.67,620.6c0.69,1.15,9.61-3.04,10.99-3.69c16.71-7.92,27.77-18.53,30.64-21.7
		c5.5-6.09,9.83-10.99,13.03-18.26c4.72-10.73,4.98-21.09,4.89-25.91c-0.04-2.07-0.3-9.78-3.5-19.73
		c-2.26-7.03-5.3-12.06-10.22-20.89c-2.33-4.19-6.31-11.12-9.93-19.66c-0.8-1.89-2.04-5.79-1.73-11.22
		c0.09-1.64,0.24-3.71,1.43-6.26c1.63-3.47,3.12-5.63,5.18-7.24c3.36-2.63,5.48-3.16,5.31-3.84c-0.25-0.98-4.96-1.35-9,0.4
		c-2.78,1.21-4.62,3.16-6.6,5.27c-0.86,0.92-2.28,2.44-3.65,4.69c-0.45,0.74-1.51,4.34-2.37,9.75c-0.73,4.58-0.56,9.11,1.17,15.63
		c0.93,3.48,2.33,8.03,7.73,20.8c3.47,8.21,5.2,12.44,7.71,20.09c1.65,5.01,1.84,8.08,2.1,11.43c0.43,5.43,0.21,9.88-0.59,13.83
		c-1.55,7.66-4.65,12.83-5.17,13.94c-0.66,1.4-3.25,8.07-9.94,15.58c-5.18,5.8-14.81,14.84-24.29,23.22
		C218.65,617.89,216.28,619.96,216.67,620.6z"/>
	<path class="st2" d="M274.43,522.42c1.17,0.58,2.79,0.61,7.06-1.36c5.02-2.32,8.49-5.01,9.92-6.16c3.6-2.89,6.74-5.41,9.7-9.81
		c3.08-4.56,3.84-7.98,4.01-8.78c0.54-2.58,0.48-4.71,0.41-5.77c-0.26-3.79-1.47-6.48-1.78-7.15c-1.73-3.68-4.58-6.58-5.1-6.25
		c-0.4,0.24,0.93,2.07,1.46,5.62c0.5,3.34-0.02,6.07-0.34,7.38c-0.19,0.79-0.96,3.71-3.22,6.84c-2.4,3.33-5.17,5.06-7.03,6.2
		c-3.42,2.09-6.45,3-9.72,3.96c-7.06,2.07-9.93,1.58-10.76,3.61c-0.47,1.15,0.43,3.07,2.23,6.9
		C272.58,520.44,273.26,521.85,274.43,522.42z"/>
	<path class="st3" d="M250.29,532.58c0.88-1.12-0.27-2.86-1.79-6.81c-1.72-4.49-1.96-6.77-3.65-7.17c-0.55-0.13-1.01,0.01-1.27,0.07
		c-5.81,1.35-11.02,5.49-11.61,5.97c-5.34,4.33-8.02,6.49-10.2,8.79c-3.01,3.16-7.24,7.68-10.61,14.56
		c-2.87,5.85-3.76,10.64-4.68,15.64c-2.19,11.82-1.25,21.41-0.64,25.79c0.88,6.37,2.22,10.88,3.88,16.34
		c1.93,6.34,5.02,14.84,6.08,14.58c0.28-0.07,0.35-1.46,0.5-4.23c0.14-2.68,0.23-4.02,0.16-6.19c-0.14-4.37-0.47-5.59-0.66-8.92
		c-0.17-3.14-0.06-5.37,0.1-8.65c0.24-4.87,0.73-8.37,1.43-13.31c0.81-5.7,1.21-8.55,2.09-11.6c1.22-4.23,2.71-7.5,3.83-9.68
		c6.33-12.26,15.94-18.97,18.67-20.52c4.6-2.61,6.89-3.91,7.18-3.99C249.42,533.15,249.94,533.03,250.29,532.58z"/>
	<path class="st3" d="M245.56,617.55c0.5,0.8,5.28-1.21,8.35-2.79c1.84-0.94,7.15-3.81,13.44-10.11c1.25-1.25,4.91-5.01,8.78-10.76
		c2.66-3.95,6.33-9.49,8.78-17.63c2-6.67,2.26-12.03,2.38-14.91c0.18-4.27,0.43-12.24-2.97-21.08c-1.39-3.62-3.56-7.82-4.25-7.6
		c-0.35,0.12-0.19,1.37,0.28,5.43c0.67,5.83,1.01,8.77,1.07,10.03c0.17,3.36-0.13,5.76-0.63,9.84c-0.65,5.35-1.63,9.27-1.86,10.17
		c-0.26,1.03-1.29,4.97-3.12,9.53c-1.49,3.71-5.52,13.76-14.28,23.1c-7.44,7.94-11.94,12.16-11.94,12.16
		C247.27,615.12,245.19,616.97,245.56,617.55z"/>
	<path class="st3" d="M269.41,616.73c2.49-1.5,4.24-3.09,6.17-5.02c2.54-2.53,4.76-4.74,7.48-8.27c1.03-1.33,4.22-5.58,7.44-11.84
		c1.89-3.68,4.13-8.03,5.68-14.27c1.71-6.86,1.66-12.22,1.61-13.98c-0.2-7.14-1.88-11.31-2.65-13.01c-0.98-2.18-2.59-5-3.17-4.79
		c-0.49,0.18,0.08,2.46,0.44,5.61c0.62,5.37,0.21,9.51-0.06,12.13c-0.46,4.6-1.43,7.84-2.62,11.82c-0.65,2.18-2.36,7.61-5.58,14.31
		c-2.25,4.68-5.63,11.73-10.83,17.69c-1.76,2.01-3.42,4.1-5.15,6.14c-3.28,3.84-4.55,5.21-4.22,5.64
		C264.4,619.46,267.59,617.83,269.41,616.73z"/>
	<path class="st3" d="M237.13,511.72c-0.37,0.43-0.96,1.09-1.68,1.9c-4.4,4.9-7.93,8.33-8.8,9.18c-9.34,9.12-14.01,13.69-17.19,18.3
		c-8.67,12.6-8.82,27.5-8.92,36.38c-0.12,11.46,2.12,18.84,1.05,19.11c-1.26,0.31-5.74-9.44-7.4-20.45
		c-0.84-5.62-2.28-16.09,2.37-27.98c3.67-9.38,9.32-15.04,13.72-19.44c2.32-2.33,9.4-9.08,20.54-14.35
		C233.37,513.15,235.56,512.29,237.13,511.72z"/>
	<path class="st3" d="M191.05,583.9c0.75-0.24-0.16-4.37-0.82-9.43c-0.83-6.29-1.63-12.33-0.62-19.02
		c0.35-2.36,1.23-7.85,4.66-13.78c1.74-3,4.03-5.53,8.61-10.59c2.97-3.28,5.3-5.85,8.51-8.81c9.03-8.34,16.32-11.71,15.77-12.88
		c-0.45-0.96-5.6,0.62-6.37,0.86c-4.82,1.48-9.4,3.91-15.98,9.23c-6.14,4.97-10.47,8.47-14.77,14.76
		c-2.38,3.48-5.32,7.86-6.87,14.43c-1.63,6.87-0.86,12.39-0.36,15.78c1.12,7.56,3.75,12.38,5.92,16.36
		C190.01,583.21,190.69,584.01,191.05,583.9z"/>
</g>
</svg>
